<svg xmlns="http://www.w3.org/2000/svg" width="520" height="340" viewBox="0 0 520 340" font-family="ui-monospace, Menlo, monospace"><rect width="520" height="340" fill="#0f1115"/>
<text x="260" y="24" fill="#e6e9ef" font-size="14" text-anchor="middle">vLLM serving: throughput and cost vs concurrency</text>
<line x1="58" y1="282" x2="462" y2="282" stroke="#9aa4b2"/>
<text x="260" y="324" fill="#9aa4b2" font-size="11" text-anchor="middle">concurrency</text>
<text x="58" y="50" fill="#3ddc97" font-size="10">green: tokens/s (batching gain)</text>
<text x="462" y="50" fill="#5b8cff" font-size="10" text-anchor="end">blue: $/1M output tok</text>
<polyline points="71,264 83,248 108,215 159,157 260,106 462,58" fill="none" stroke="#3ddc97" stroke-width="2"/>
<polyline points="71,58 83,159 108,220 159,249 260,258 462,263" fill="none" stroke="#5b8cff" stroke-width="2"/>
<circle cx="71" cy="264" r="4" fill="#3ddc97"/>
<text x="71" y="256" fill="#e6e9ef" font-size="9" text-anchor="middle">18</text>
<circle cx="71" cy="58" r="4" fill="#5b8cff"/>
<text x="71" y="298" fill="#9aa4b2" font-size="10" text-anchor="middle">1</text>
<circle cx="83" cy="248" r="4" fill="#3ddc97"/>
<text x="83" y="240" fill="#e6e9ef" font-size="9" text-anchor="middle">33</text>
<circle cx="83" cy="159" r="4" fill="#5b8cff"/>
<text x="83" y="298" fill="#9aa4b2" font-size="10" text-anchor="middle">2</text>
<circle cx="108" cy="215" r="4" fill="#3ddc97"/>
<text x="108" y="207" fill="#e6e9ef" font-size="9" text-anchor="middle">65</text>
<circle cx="108" cy="220" r="4" fill="#5b8cff"/>
<text x="108" y="298" fill="#9aa4b2" font-size="10" text-anchor="middle">4</text>
<circle cx="159" cy="157" r="4" fill="#3ddc97"/>
<text x="159" y="149" fill="#e6e9ef" font-size="9" text-anchor="middle">121</text>
<circle cx="159" cy="249" r="4" fill="#5b8cff"/>
<text x="159" y="298" fill="#9aa4b2" font-size="10" text-anchor="middle">8</text>
<circle cx="260" cy="106" r="4" fill="#3ddc97"/>
<text x="260" y="98" fill="#e6e9ef" font-size="9" text-anchor="middle">172</text>
<circle cx="260" cy="258" r="4" fill="#5b8cff"/>
<text x="260" y="298" fill="#9aa4b2" font-size="10" text-anchor="middle">16</text>
<circle cx="462" cy="58" r="4" fill="#3ddc97"/>
<text x="462" y="50" fill="#e6e9ef" font-size="9" text-anchor="middle">218</text>
<circle cx="462" cy="263" r="4" fill="#5b8cff"/>
<text x="462" y="298" fill="#9aa4b2" font-size="10" text-anchor="middle">32</text>
<line x1="58" y1="269" x2="462" y2="269" stroke="#5b8cff" stroke-width="1" stroke-dasharray="5 4" opacity="0.7"/>
<text x="462" y="264" fill="#5b8cff" font-size="9" text-anchor="end">hosted API $1.1/1M (break-even)</text>
</svg>